<svg width="85" height="93" viewBox="0 0 85 93" fill="none" xmlns="http://www.w3.org/2000/svg">
<path d="M42.5444 50.8333V5L75.8778 21.6667L42.5444 38.3333" stroke="#F0F8FF" stroke-width="8.33333" stroke-linecap="round" stroke-linejoin="round"/>
<path d="M78.1695 39.2917C80.3868 46.1256 80.5943 53.4526 78.7672 60.401C76.9402 67.3495 73.1555 73.6268 67.8635 78.4862C62.5715 83.3456 55.995 86.5825 48.9163 87.8118C41.8377 89.0411 34.5548 88.211 27.9343 85.4204C21.3138 82.6298 15.6343 77.996 11.5715 72.0704C7.50874 66.1448 5.2337 59.1769 5.01706 51.9955C4.80042 44.8142 6.65131 37.7217 10.3495 31.562C14.0477 25.4023 19.4376 20.4346 25.8778 17.25" stroke="#F0F8FF" stroke-width="8.33333" stroke-linecap="round" stroke-linejoin="round"/>
<path d="M25.8778 38.3333C23.7899 41.1126 22.4306 44.3701 21.9238 47.8091C21.417 51.2481 21.7787 54.7593 22.9761 58.0227C24.1735 61.2861 26.1684 64.198 28.7791 66.4932C31.3899 68.7883 34.5334 70.3938 37.9233 71.1632C41.3133 71.9326 44.8418 71.8415 48.1876 70.8982C51.5333 69.955 54.5898 68.1896 57.0787 65.7628C59.5675 63.336 61.4096 60.3251 62.437 57.0042C63.4645 53.6834 63.6446 50.1583 62.9611 46.75" stroke="#F0F8FF" stroke-width="8.33333" stroke-linecap="round" stroke-linejoin="round"/>
</svg>
